<mxfile host="app.diagrams.net" agent="Mozilla/5.0 (Windows NT 10.0; Win64; x64; rv:134.0) Gecko/20100101 Firefox/134.0" version="26.0.16">
  <diagram id="C5RBs43oDa-KdzZeNtuy" name="Page-1">
    <mxGraphModel dx="1496" dy="1634" grid="1" gridSize="10" guides="1" tooltips="1" connect="1" arrows="1" fold="1" page="1" pageScale="1" pageWidth="1169" pageHeight="1654" math="0" shadow="0">
      <root>
        <mxCell id="WIyWlLk6GJQsqaUBKTNV-0" />
        <mxCell id="WIyWlLk6GJQsqaUBKTNV-1" parent="WIyWlLk6GJQsqaUBKTNV-0" />
        <mxCell id="0RJFwm6MSFstVG_xr5MZ-1" value="Bacs" style="swimlane;fontStyle=0;childLayout=stackLayout;horizontal=1;startSize=26;horizontalStack=0;resizeParent=1;resizeParentMax=0;resizeLast=0;collapsible=1;marginBottom=0;align=center;fontSize=14;" vertex="1" parent="WIyWlLk6GJQsqaUBKTNV-1">
          <mxGeometry x="17.5" y="130" width="160" height="140" as="geometry" />
        </mxCell>
        <mxCell id="0RJFwm6MSFstVG_xr5MZ-2" value="&lt;div&gt;idBacs (+)&lt;br&gt;&lt;/div&gt;&lt;div&gt;&lt;br&gt;&lt;/div&gt;&lt;div&gt;nomBac&lt;/div&gt;&lt;div&gt;capacite&lt;/div&gt;&lt;div&gt;localisation&lt;/div&gt;&lt;div&gt;energieconsommee&lt;/div&gt;&lt;div&gt;idPlante (#)&lt;br&gt;&lt;/div&gt;&lt;div&gt;&lt;br&gt;&lt;/div&gt;" style="text;strokeColor=none;fillColor=none;spacingLeft=4;spacingRight=4;overflow=hidden;rotatable=0;points=[[0,0.5],[1,0.5]];portConstraint=eastwest;fontSize=12;whiteSpace=wrap;html=1;" vertex="1" parent="0RJFwm6MSFstVG_xr5MZ-1">
          <mxGeometry y="26" width="160" height="114" as="geometry" />
        </mxCell>
        <mxCell id="0RJFwm6MSFstVG_xr5MZ-3" value="Plantes" style="swimlane;fontStyle=0;childLayout=stackLayout;horizontal=1;startSize=26;horizontalStack=0;resizeParent=1;resizeParentMax=0;resizeLast=0;collapsible=1;marginBottom=0;align=center;fontSize=14;" vertex="1" parent="WIyWlLk6GJQsqaUBKTNV-1">
          <mxGeometry x="415" y="130" width="160" height="110" as="geometry">
            <mxRectangle x="380" y="360" width="90" height="30" as="alternateBounds" />
          </mxGeometry>
        </mxCell>
        <mxCell id="0RJFwm6MSFstVG_xr5MZ-4" value="&lt;div&gt;idPlante (+)&lt;/div&gt;&lt;div&gt;&lt;br&gt;&lt;/div&gt;&lt;div&gt;nomPlante&lt;/div&gt;&lt;div&gt;datePlantation&lt;/div&gt;&lt;div&gt;idGroupe (#)&lt;br&gt;&lt;/div&gt;" style="text;strokeColor=none;fillColor=none;spacingLeft=4;spacingRight=4;overflow=hidden;rotatable=0;points=[[0,0.5],[1,0.5]];portConstraint=eastwest;fontSize=12;whiteSpace=wrap;html=1;" vertex="1" parent="0RJFwm6MSFstVG_xr5MZ-3">
          <mxGeometry y="26" width="160" height="84" as="geometry" />
        </mxCell>
        <mxCell id="0RJFwm6MSFstVG_xr5MZ-5" value="" style="endArrow=classicThin;html=1;rounded=0;endFill=1;entryX=1.018;entryY=0.903;entryDx=0;entryDy=0;entryPerimeter=0;edgeStyle=orthogonalEdgeStyle;" edge="1" parent="WIyWlLk6GJQsqaUBKTNV-1" target="0RJFwm6MSFstVG_xr5MZ-2">
          <mxGeometry relative="1" as="geometry">
            <mxPoint x="415" y="170" as="sourcePoint" />
            <mxPoint x="310" y="50" as="targetPoint" />
            <Array as="points">
              <mxPoint x="415" y="170" />
              <mxPoint x="296" y="170" />
              <mxPoint x="296" y="259" />
            </Array>
          </mxGeometry>
        </mxCell>
        <mxCell id="0RJFwm6MSFstVG_xr5MZ-10" value="Actionneur" style="swimlane;fontStyle=0;childLayout=stackLayout;horizontal=1;startSize=26;horizontalStack=0;resizeParent=1;resizeParentMax=0;resizeLast=0;collapsible=1;marginBottom=0;align=center;fontSize=14;" vertex="1" parent="WIyWlLk6GJQsqaUBKTNV-1">
          <mxGeometry x="17.5" y="320" width="160" height="120" as="geometry" />
        </mxCell>
        <mxCell id="0RJFwm6MSFstVG_xr5MZ-11" value="&lt;div&gt;idActionneur (+)&lt;/div&gt;&lt;div&gt;&lt;br&gt;&lt;/div&gt;&lt;div&gt;typeActionneur&lt;/div&gt;&lt;div&gt;dateInstallation&lt;/div&gt;&lt;div&gt;datemaintenance&lt;/div&gt;&lt;div&gt;idBac (#)&lt;br&gt;&lt;/div&gt;" style="text;strokeColor=none;fillColor=none;spacingLeft=4;spacingRight=4;overflow=hidden;rotatable=0;points=[[0,0.5],[1,0.5]];portConstraint=eastwest;fontSize=12;whiteSpace=wrap;html=1;" vertex="1" parent="0RJFwm6MSFstVG_xr5MZ-10">
          <mxGeometry y="26" width="160" height="94" as="geometry" />
        </mxCell>
        <mxCell id="0RJFwm6MSFstVG_xr5MZ-16" value="Capteur" style="swimlane;fontStyle=0;childLayout=stackLayout;horizontal=1;startSize=26;horizontalStack=0;resizeParent=1;resizeParentMax=0;resizeLast=0;collapsible=1;marginBottom=0;align=center;fontSize=14;" vertex="1" parent="WIyWlLk6GJQsqaUBKTNV-1">
          <mxGeometry x="17.5" y="465" width="160" height="140" as="geometry" />
        </mxCell>
        <mxCell id="0RJFwm6MSFstVG_xr5MZ-17" value="&lt;div&gt;idCapteur (+)&lt;/div&gt;&lt;div&gt;&lt;br&gt;&lt;/div&gt;&lt;div&gt;typeCapteur&lt;/div&gt;&lt;div&gt;localisation&lt;/div&gt;&lt;div&gt;dateInstallation&lt;/div&gt;&lt;div&gt;datemaintenance&lt;/div&gt;&lt;div&gt;idBac (#)&lt;/div&gt;" style="text;strokeColor=none;fillColor=none;spacingLeft=4;spacingRight=4;overflow=hidden;rotatable=0;points=[[0,0.5],[1,0.5]];portConstraint=eastwest;fontSize=12;whiteSpace=wrap;html=1;" vertex="1" parent="0RJFwm6MSFstVG_xr5MZ-16">
          <mxGeometry y="26" width="160" height="114" as="geometry" />
        </mxCell>
        <mxCell id="0RJFwm6MSFstVG_xr5MZ-22" value="Alerte" style="swimlane;fontStyle=0;childLayout=stackLayout;horizontal=1;startSize=26;horizontalStack=0;resizeParent=1;resizeParentMax=0;resizeLast=0;collapsible=1;marginBottom=0;align=center;fontSize=14;" vertex="1" parent="WIyWlLk6GJQsqaUBKTNV-1">
          <mxGeometry x="17.5" y="614" width="160" height="120" as="geometry" />
        </mxCell>
        <mxCell id="0RJFwm6MSFstVG_xr5MZ-23" value="&lt;div&gt;idAlerte (+)&lt;/div&gt;&lt;div&gt;&lt;br&gt;&lt;/div&gt;&lt;div&gt;typeAlerte&lt;/div&gt;&lt;div&gt;dateHeure&lt;/div&gt;&lt;div&gt;message&lt;/div&gt;&lt;div&gt;&lt;div&gt;idBac (#)&lt;/div&gt;&lt;/div&gt;" style="text;strokeColor=none;fillColor=none;spacingLeft=4;spacingRight=4;overflow=hidden;rotatable=0;points=[[0,0.5],[1,0.5]];portConstraint=eastwest;fontSize=12;whiteSpace=wrap;html=1;" vertex="1" parent="0RJFwm6MSFstVG_xr5MZ-22">
          <mxGeometry y="26" width="160" height="94" as="geometry" />
        </mxCell>
        <mxCell id="0RJFwm6MSFstVG_xr5MZ-29" value="&amp;nbsp;" style="text;strokeColor=none;fillColor=none;spacingLeft=4;spacingRight=4;overflow=hidden;rotatable=0;points=[[0,0.5],[1,0.5]];portConstraint=eastwest;fontSize=12;whiteSpace=wrap;html=1;" vertex="1" parent="WIyWlLk6GJQsqaUBKTNV-1">
          <mxGeometry x="938.5" y="494" width="160" height="30" as="geometry" />
        </mxCell>
        <mxCell id="0RJFwm6MSFstVG_xr5MZ-30" value="Groupe" style="swimlane;fontStyle=0;childLayout=stackLayout;horizontal=1;startSize=26;horizontalStack=0;resizeParent=1;resizeParentMax=0;resizeLast=0;collapsible=1;marginBottom=0;align=center;fontSize=14;" vertex="1" parent="WIyWlLk6GJQsqaUBKTNV-1">
          <mxGeometry x="967" y="414" width="160" height="116" as="geometry">
            <mxRectangle x="380" y="360" width="90" height="30" as="alternateBounds" />
          </mxGeometry>
        </mxCell>
        <mxCell id="0RJFwm6MSFstVG_xr5MZ-31" value="idGroupe (+)" style="text;strokeColor=none;fillColor=none;spacingLeft=4;spacingRight=4;overflow=hidden;rotatable=0;points=[[0,0.5],[1,0.5]];portConstraint=eastwest;fontSize=12;whiteSpace=wrap;html=1;" vertex="1" parent="0RJFwm6MSFstVG_xr5MZ-30">
          <mxGeometry y="26" width="160" height="30" as="geometry" />
        </mxCell>
        <mxCell id="0RJFwm6MSFstVG_xr5MZ-32" value="nom" style="text;strokeColor=none;fillColor=none;spacingLeft=4;spacingRight=4;overflow=hidden;rotatable=0;points=[[0,0.5],[1,0.5]];portConstraint=eastwest;fontSize=12;whiteSpace=wrap;html=1;" vertex="1" parent="0RJFwm6MSFstVG_xr5MZ-30">
          <mxGeometry y="56" width="160" height="30" as="geometry" />
        </mxCell>
        <mxCell id="0RJFwm6MSFstVG_xr5MZ-33" value="&amp;nbsp;" style="text;strokeColor=none;fillColor=none;spacingLeft=4;spacingRight=4;overflow=hidden;rotatable=0;points=[[0,0.5],[1,0.5]];portConstraint=eastwest;fontSize=12;whiteSpace=wrap;html=1;" vertex="1" parent="0RJFwm6MSFstVG_xr5MZ-30">
          <mxGeometry y="86" width="160" height="30" as="geometry" />
        </mxCell>
        <mxCell id="0RJFwm6MSFstVG_xr5MZ-38" value="&amp;nbsp;" style="text;strokeColor=none;fillColor=none;spacingLeft=4;spacingRight=4;overflow=hidden;rotatable=0;points=[[0,0.5],[1,0.5]];portConstraint=eastwest;fontSize=12;whiteSpace=wrap;html=1;" vertex="1" parent="WIyWlLk6GJQsqaUBKTNV-1">
          <mxGeometry x="967" y="608" width="160" height="30" as="geometry" />
        </mxCell>
        <mxCell id="0RJFwm6MSFstVG_xr5MZ-42" value="Periode" style="swimlane;fontStyle=0;childLayout=stackLayout;horizontal=1;startSize=26;horizontalStack=0;resizeParent=1;resizeParentMax=0;resizeLast=0;collapsible=1;marginBottom=0;align=center;fontSize=14;" vertex="1" parent="WIyWlLk6GJQsqaUBKTNV-1">
          <mxGeometry x="967" y="565" width="160" height="116" as="geometry">
            <mxRectangle x="380" y="360" width="90" height="30" as="alternateBounds" />
          </mxGeometry>
        </mxCell>
        <mxCell id="0RJFwm6MSFstVG_xr5MZ-43" value="idPeriode (+)" style="text;strokeColor=none;fillColor=none;spacingLeft=4;spacingRight=4;overflow=hidden;rotatable=0;points=[[0,0.5],[1,0.5]];portConstraint=eastwest;fontSize=12;whiteSpace=wrap;html=1;" vertex="1" parent="0RJFwm6MSFstVG_xr5MZ-42">
          <mxGeometry y="26" width="160" height="30" as="geometry" />
        </mxCell>
        <mxCell id="0RJFwm6MSFstVG_xr5MZ-44" value="nom" style="text;strokeColor=none;fillColor=none;spacingLeft=4;spacingRight=4;overflow=hidden;rotatable=0;points=[[0,0.5],[1,0.5]];portConstraint=eastwest;fontSize=12;whiteSpace=wrap;html=1;" vertex="1" parent="0RJFwm6MSFstVG_xr5MZ-42">
          <mxGeometry y="56" width="160" height="30" as="geometry" />
        </mxCell>
        <mxCell id="0RJFwm6MSFstVG_xr5MZ-45" value="&amp;nbsp;" style="text;strokeColor=none;fillColor=none;spacingLeft=4;spacingRight=4;overflow=hidden;rotatable=0;points=[[0,0.5],[1,0.5]];portConstraint=eastwest;fontSize=12;whiteSpace=wrap;html=1;" vertex="1" parent="0RJFwm6MSFstVG_xr5MZ-42">
          <mxGeometry y="86" width="160" height="30" as="geometry" />
        </mxCell>
        <mxCell id="0RJFwm6MSFstVG_xr5MZ-46" value="Irrigation" style="swimlane;fontStyle=0;childLayout=stackLayout;horizontal=1;startSize=26;horizontalStack=0;resizeParent=1;resizeParentMax=0;resizeLast=0;collapsible=1;marginBottom=0;align=center;fontSize=14;" vertex="1" parent="WIyWlLk6GJQsqaUBKTNV-1">
          <mxGeometry x="17.5" y="795" width="160" height="110" as="geometry" />
        </mxCell>
        <mxCell id="0RJFwm6MSFstVG_xr5MZ-77" style="edgeStyle=orthogonalEdgeStyle;rounded=0;orthogonalLoop=1;jettySize=auto;html=1;endArrow=none;startFill=0;" edge="1" parent="0RJFwm6MSFstVG_xr5MZ-46">
          <mxGeometry relative="1" as="geometry">
            <mxPoint x="232.5" y="-65" as="targetPoint" />
            <mxPoint x="212.5" y="68" as="sourcePoint" />
          </mxGeometry>
        </mxCell>
        <mxCell id="0RJFwm6MSFstVG_xr5MZ-47" value="&lt;div&gt;idIrrigtion (+)&lt;/div&gt;&lt;div&gt;&lt;br&gt;&lt;/div&gt;&lt;div&gt;dateHeure&lt;/div&gt;&lt;div&gt;&lt;div&gt;idBac (#)&lt;/div&gt;&lt;div&gt;&lt;div&gt;idRecette (#)&lt;/div&gt;&lt;/div&gt;&lt;/div&gt;&lt;div&gt;&lt;br&gt;&lt;/div&gt;" style="text;strokeColor=none;fillColor=none;spacingLeft=4;spacingRight=4;overflow=hidden;rotatable=0;points=[[0,0.5],[1,0.5]];portConstraint=eastwest;fontSize=12;whiteSpace=wrap;html=1;" vertex="1" parent="0RJFwm6MSFstVG_xr5MZ-46">
          <mxGeometry y="26" width="160" height="84" as="geometry" />
        </mxCell>
        <mxCell id="0RJFwm6MSFstVG_xr5MZ-52" value="Recette" style="swimlane;fontStyle=0;childLayout=stackLayout;horizontal=1;startSize=26;horizontalStack=0;resizeParent=1;resizeParentMax=0;resizeLast=0;collapsible=1;marginBottom=0;align=center;fontSize=14;movable=1;resizable=1;rotatable=1;deletable=1;editable=1;locked=0;connectable=1;container=1;" vertex="1" parent="WIyWlLk6GJQsqaUBKTNV-1">
          <mxGeometry x="400" y="689" width="280" height="290" as="geometry">
            <mxRectangle x="380" y="360" width="90" height="30" as="alternateBounds" />
          </mxGeometry>
        </mxCell>
        <mxCell id="0RJFwm6MSFstVG_xr5MZ-64" value="&lt;h2&gt;MLD de la BDD optiplant &lt;br&gt;&lt;/h2&gt;" style="text;html=1;align=center;verticalAlign=middle;resizable=0;points=[];autosize=1;strokeColor=none;fillColor=none;" vertex="1" parent="WIyWlLk6GJQsqaUBKTNV-1">
          <mxGeometry x="15" width="230" height="60" as="geometry" />
        </mxCell>
        <mxCell id="0RJFwm6MSFstVG_xr5MZ-65" value="Météo" style="swimlane;fontStyle=0;childLayout=stackLayout;horizontal=1;startSize=26;horizontalStack=0;resizeParent=1;resizeParentMax=0;resizeLast=0;collapsible=1;marginBottom=0;align=center;fontSize=14;" vertex="1" parent="WIyWlLk6GJQsqaUBKTNV-1">
          <mxGeometry x="967" y="130" width="160" height="150" as="geometry" />
        </mxCell>
        <mxCell id="0RJFwm6MSFstVG_xr5MZ-66" value="&lt;div&gt;idMeteo (+)&lt;/div&gt;&lt;div&gt;&lt;br&gt;&lt;/div&gt;&lt;div&gt;dateHeure&lt;/div&gt;&lt;div&gt;temperature&lt;/div&gt;&lt;div&gt;humidite&lt;/div&gt;&lt;div&gt;luminosite&lt;br&gt;          pluie&lt;/div&gt;&lt;div&gt;vent&lt;br&gt;&lt;/div&gt;" style="text;strokeColor=none;fillColor=none;spacingLeft=4;spacingRight=4;overflow=hidden;rotatable=0;points=[[0,0.5],[1,0.5]];portConstraint=eastwest;fontSize=12;whiteSpace=wrap;html=1;" vertex="1" parent="0RJFwm6MSFstVG_xr5MZ-65">
          <mxGeometry y="26" width="160" height="124" as="geometry" />
        </mxCell>
        <mxCell id="0RJFwm6MSFstVG_xr5MZ-67" value="Production électrique" style="swimlane;fontStyle=0;childLayout=stackLayout;horizontal=1;startSize=26;horizontalStack=0;resizeParent=1;resizeParentMax=0;resizeLast=0;collapsible=1;marginBottom=0;align=center;fontSize=14;" vertex="1" parent="WIyWlLk6GJQsqaUBKTNV-1">
          <mxGeometry x="769" y="130" width="160" height="100" as="geometry" />
        </mxCell>
        <mxCell id="0RJFwm6MSFstVG_xr5MZ-68" value="&lt;div&gt;idProduction (+)&lt;/div&gt;&lt;div&gt;&lt;br&gt;&lt;/div&gt;&lt;div&gt;dateHeure&lt;/div&gt;&lt;div&gt;energieProduite&lt;br&gt;&lt;/div&gt;" style="text;strokeColor=none;fillColor=none;spacingLeft=4;spacingRight=4;overflow=hidden;rotatable=0;points=[[0,0.5],[1,0.5]];portConstraint=eastwest;fontSize=12;whiteSpace=wrap;html=1;" vertex="1" parent="0RJFwm6MSFstVG_xr5MZ-67">
          <mxGeometry y="26" width="160" height="74" as="geometry" />
        </mxCell>
        <mxCell id="0RJFwm6MSFstVG_xr5MZ-70" style="edgeStyle=orthogonalEdgeStyle;rounded=0;orthogonalLoop=1;jettySize=auto;html=1;exitX=1;exitY=0.5;exitDx=0;exitDy=0;entryX=1.018;entryY=0.933;entryDx=0;entryDy=0;entryPerimeter=0;" edge="1" parent="WIyWlLk6GJQsqaUBKTNV-1" target="0RJFwm6MSFstVG_xr5MZ-11">
          <mxGeometry relative="1" as="geometry">
            <mxPoint x="260" y="420" as="targetPoint" />
            <mxPoint x="177.5" y="166.50000000000023" as="sourcePoint" />
            <Array as="points">
              <mxPoint x="250" y="167" />
              <mxPoint x="250" y="434" />
            </Array>
          </mxGeometry>
        </mxCell>
        <mxCell id="0RJFwm6MSFstVG_xr5MZ-74" value="" style="endArrow=classic;html=1;rounded=0;" edge="1" parent="WIyWlLk6GJQsqaUBKTNV-1">
          <mxGeometry width="50" height="50" relative="1" as="geometry">
            <mxPoint x="200" y="550" as="sourcePoint" />
            <mxPoint x="177.5" y="550" as="targetPoint" />
          </mxGeometry>
        </mxCell>
        <mxCell id="0RJFwm6MSFstVG_xr5MZ-73" style="edgeStyle=orthogonalEdgeStyle;rounded=0;orthogonalLoop=1;jettySize=auto;html=1;endArrow=none;startFill=0;endFill=1;" edge="1" parent="WIyWlLk6GJQsqaUBKTNV-1">
          <mxGeometry relative="1" as="geometry">
            <mxPoint x="250.0000000000001" y="430" as="targetPoint" />
            <mxPoint x="190" y="550" as="sourcePoint" />
          </mxGeometry>
        </mxCell>
        <mxCell id="0RJFwm6MSFstVG_xr5MZ-75" value="" style="endArrow=classic;html=1;rounded=0;edgeStyle=orthogonalEdgeStyle;" edge="1" parent="WIyWlLk6GJQsqaUBKTNV-1">
          <mxGeometry width="50" height="50" relative="1" as="geometry">
            <mxPoint x="250" y="563.49" as="sourcePoint" />
            <mxPoint x="177.5" y="729.98" as="targetPoint" />
            <Array as="points">
              <mxPoint x="250" y="550.98" />
              <mxPoint x="250" y="729.98" />
            </Array>
          </mxGeometry>
        </mxCell>
        <mxCell id="0RJFwm6MSFstVG_xr5MZ-78" value="" style="endArrow=classic;html=1;rounded=0;" edge="1" parent="WIyWlLk6GJQsqaUBKTNV-1">
          <mxGeometry width="50" height="50" relative="1" as="geometry">
            <mxPoint x="240" y="863" as="sourcePoint" />
            <mxPoint x="177.5" y="862.6" as="targetPoint" />
          </mxGeometry>
        </mxCell>
        <mxCell id="0RJFwm6MSFstVG_xr5MZ-79" style="edgeStyle=orthogonalEdgeStyle;rounded=0;orthogonalLoop=1;jettySize=auto;html=1;exitX=0.002;exitY=0.061;exitDx=0;exitDy=0;entryX=1;entryY=0.862;entryDx=0;entryDy=0;entryPerimeter=0;exitPerimeter=0;" edge="1" parent="WIyWlLk6GJQsqaUBKTNV-1" source="0RJFwm6MSFstVG_xr5MZ-53" target="0RJFwm6MSFstVG_xr5MZ-47">
          <mxGeometry relative="1" as="geometry">
            <mxPoint x="190" y="900" as="targetPoint" />
          </mxGeometry>
        </mxCell>
        <mxCell id="0RJFwm6MSFstVG_xr5MZ-80" style="edgeStyle=orthogonalEdgeStyle;rounded=0;orthogonalLoop=1;jettySize=auto;html=1;entryX=1.006;entryY=0.928;entryDx=0;entryDy=0;entryPerimeter=0;exitX=0;exitY=0.5;exitDx=0;exitDy=0;" edge="1" parent="WIyWlLk6GJQsqaUBKTNV-1" source="0RJFwm6MSFstVG_xr5MZ-43" target="0RJFwm6MSFstVG_xr5MZ-53">
          <mxGeometry relative="1" as="geometry">
            <mxPoint x="700.0000000000001" y="963.952" as="targetPoint" />
            <mxPoint x="940" y="606" as="sourcePoint" />
            <Array as="points">
              <mxPoint x="830" y="606" />
              <mxPoint x="830" y="960" />
            </Array>
          </mxGeometry>
        </mxCell>
        <mxCell id="0RJFwm6MSFstVG_xr5MZ-81" style="edgeStyle=orthogonalEdgeStyle;rounded=0;orthogonalLoop=1;jettySize=auto;html=1;exitX=0;exitY=0.5;exitDx=0;exitDy=0;entryX=1.005;entryY=0.781;entryDx=0;entryDy=0;entryPerimeter=0;" edge="1" parent="WIyWlLk6GJQsqaUBKTNV-1" target="0RJFwm6MSFstVG_xr5MZ-53">
          <mxGeometry relative="1" as="geometry">
            <mxPoint x="967" y="460" as="sourcePoint" />
            <mxPoint x="680" y="921" as="targetPoint" />
            <Array as="points">
              <mxPoint x="700" y="460" />
              <mxPoint x="700" y="921" />
            </Array>
          </mxGeometry>
        </mxCell>
        <mxCell id="0RJFwm6MSFstVG_xr5MZ-82" style="edgeStyle=orthogonalEdgeStyle;rounded=0;orthogonalLoop=1;jettySize=auto;html=1;exitX=0;exitY=0.5;exitDx=0;exitDy=0;entryX=1.009;entryY=0.824;entryDx=0;entryDy=0;entryPerimeter=0;" edge="1" parent="WIyWlLk6GJQsqaUBKTNV-1" source="0RJFwm6MSFstVG_xr5MZ-31" target="0RJFwm6MSFstVG_xr5MZ-4">
          <mxGeometry relative="1" as="geometry">
            <Array as="points">
              <mxPoint x="700" y="455" />
              <mxPoint x="700" y="225" />
            </Array>
          </mxGeometry>
        </mxCell>
        <mxCell id="0RJFwm6MSFstVG_xr5MZ-53" value="&lt;div&gt;idRecette (+)&lt;/div&gt;&lt;div&gt;&lt;br&gt;&lt;/div&gt;&lt;div&gt;eauArrosage&lt;span style=&quot;white-space: pre;&quot;&gt;&#x9;&lt;/span&gt;&lt;span style=&quot;white-space: pre;&quot;&gt;&#x9;&lt;/span&gt;&lt;span style=&quot;white-space: pre;&quot;&gt;&#x9;&lt;/span&gt;&lt;span style=&quot;white-space: pre;&quot;&gt;&#x9;&lt;/span&gt;&lt;span style=&quot;white-space: pre;&quot;&gt;&#x9;&lt;/span&gt;&lt;span style=&quot;white-space: pre;&quot;&gt;&#x9;&lt;/span&gt;&lt;span style=&quot;white-space: pre;&quot;&gt;&#x9;&lt;/span&gt;&lt;span style=&quot;white-space: pre;&quot;&gt;&#x9;&lt;/span&gt;&lt;/div&gt;&lt;div&gt;&lt;div&gt;arrosage_jour&lt;/div&gt;&lt;div&gt;quotidien&lt;/div&gt;&lt;div&gt;eauTotalJour&lt;/div&gt;&lt;div&gt;&lt;span style=&quot;font-weight: normal;&quot;&gt;rationNPK&lt;/span&gt;&lt;br&gt;azote&lt;br&gt;tempsActivationAzote&lt;br&gt;phosphore&lt;br&gt;tempsActivationPhosphore&lt;br&gt;potassium&lt;/div&gt;&lt;div&gt;tempsActivationPotassium&lt;br&gt;quantiteNutriment&lt;br&gt;seuilHumidite&lt;br&gt;&lt;div&gt;idGroupe (#)&lt;/div&gt;&lt;div&gt;idPeriode (#)&lt;/div&gt;&lt;table data-uniqueid=&quot;1690266209&quot; class=&quot;table table-striped table-hover table-sm table_results data ajax w-auto&quot;&gt;&lt;thead&gt;&lt;tr&gt;&lt;th data-column=&quot;rationNPK&quot; class=&quot;draggable position-sticky text-end&quot;&gt;&lt;span style=&quot;font-weight: normal;&quot;&gt;&lt;br&gt;        &lt;br&gt;  &lt;/span&gt;&lt;/th&gt;  &lt;th data-column=&quot;azote&quot; class=&quot;draggable position-sticky text-end&quot;&gt;&lt;br&gt;&lt;br&gt;        &lt;br&gt;  &lt;/th&gt;  &lt;th data-column=&quot;tempsActivationAzote&quot; class=&quot;draggable position-sticky text-end&quot;&gt;&lt;br&gt;&lt;br&gt;        &lt;br&gt;  &lt;/th&gt;  &lt;th data-column=&quot;phosphore&quot; class=&quot;draggable position-sticky text-end&quot;&gt;&lt;br&gt;&lt;br&gt;        &lt;br&gt;  &lt;/th&gt;  &lt;th data-column=&quot;tempsActivationPhosphore&quot; class=&quot;draggable position-sticky text-end&quot;&gt;&lt;br&gt;&lt;br&gt;        &lt;br&gt;  &lt;/th&gt;  &lt;th data-column=&quot;potassium&quot; class=&quot;draggable position-sticky text-end&quot;&gt;&lt;br&gt;&lt;br&gt;        &lt;br&gt;  &lt;/th&gt;  &lt;th data-column=&quot;tempsActivationPotassium&quot; class=&quot;draggable position-sticky text-end&quot;&gt;&lt;br&gt;&lt;br&gt;        &lt;br&gt;  &lt;/th&gt;  &lt;th data-column=&quot;quantiteNutriment&quot; class=&quot;draggable position-sticky text-end&quot;&gt;&lt;br&gt;&lt;br&gt;        &lt;br&gt;  &lt;/th&gt;  &lt;th data-column=&quot;seuilHumidite&quot; class=&quot;draggable position-sticky text-end&quot;&gt;&lt;br&gt;&lt;br&gt;        &lt;br&gt;  &lt;/th&gt;      &lt;td colspan=&quot;4&quot; class=&quot;d-print-none&quot;&gt;&lt;br&gt;&lt;/td&gt;&lt;/tr&gt;&lt;/thead&gt;&lt;/table&gt;&lt;/div&gt;&lt;/div&gt;&lt;div&gt;&lt;br&gt;&lt;/div&gt;" style="text;strokeColor=none;fillColor=none;spacingLeft=4;spacingRight=4;overflow=hidden;rotatable=1;points=[[0,0.5],[1,0.5]];portConstraint=eastwest;fontSize=12;whiteSpace=wrap;html=1;movable=1;resizable=1;deletable=1;editable=1;locked=0;connectable=1;align=left;container=0;" vertex="1" parent="WIyWlLk6GJQsqaUBKTNV-1">
          <mxGeometry x="400" y="715" width="280" height="264" as="geometry" />
        </mxCell>
      </root>
    </mxGraphModel>
  </diagram>
</mxfile>
